<mxfile host="app.diagrams.net" modified="2022-07-15T05:52:07.793Z" agent="5.0 (Macintosh; Intel Mac OS X 10_15_7) AppleWebKit/537.36 (KHTML, like Gecko) Chrome/103.0.0.0 Safari/537.36" etag="18rIM01Ag3lCR0bt7xU-" version="20.0.4" type="github">
  <diagram id="oWH_SK-iqgNCPnG6fPYH" name="Page-1">
    <mxGraphModel dx="1236" dy="2009" grid="1" gridSize="10" guides="1" tooltips="1" connect="1" arrows="1" fold="1" page="1" pageScale="1" pageWidth="827" pageHeight="1169" math="0" shadow="0">
      <root>
        <mxCell id="0" />
        <mxCell id="1" parent="0" />
        <mxCell id="vZHb_LdkEPTU56aYvnZh-6" value="WEB UI" style="rounded=1;whiteSpace=wrap;html=1;absoluteArcSize=1;arcSize=14;strokeWidth=1;dashed=1;fillColor=#d5e8d4;dashPattern=1 1;strokeColor=#82b366;" parent="1" vertex="1">
          <mxGeometry x="167" y="69" width="91" height="40" as="geometry" />
        </mxCell>
        <mxCell id="vZHb_LdkEPTU56aYvnZh-9" value="VIP（Virtual IP Address）" style="rounded=1;whiteSpace=wrap;html=1;absoluteArcSize=1;arcSize=14;strokeWidth=1;dashed=1;dashPattern=1 1;fillColor=#ffe6cc;strokeColor=#d79b00;" parent="1" vertex="1">
          <mxGeometry x="80" y="148" width="720" height="30" as="geometry" />
        </mxCell>
        <mxCell id="vZHb_LdkEPTU56aYvnZh-14" value="WEB UI" style="rounded=1;whiteSpace=wrap;html=1;absoluteArcSize=1;arcSize=14;strokeWidth=1;dashed=1;fillColor=#d5e8d4;dashPattern=1 1;strokeColor=#82b366;" parent="1" vertex="1">
          <mxGeometry x="321" y="69" width="91" height="40" as="geometry" />
        </mxCell>
        <mxCell id="vZHb_LdkEPTU56aYvnZh-15" value="WEB UI" style="rounded=1;whiteSpace=wrap;html=1;absoluteArcSize=1;arcSize=14;strokeWidth=1;dashed=1;fillColor=#d5e8d4;dashPattern=1 1;strokeColor=#82b366;" parent="1" vertex="1">
          <mxGeometry x="622" y="69" width="91" height="40" as="geometry" />
        </mxCell>
        <mxCell id="vZHb_LdkEPTU56aYvnZh-17" value="" style="rounded=1;whiteSpace=wrap;html=1;absoluteArcSize=1;arcSize=14;strokeWidth=1;dashed=1;dashPattern=1 1;fillColor=#dae8fc;strokeColor=#6c8ebf;" parent="1" vertex="1">
          <mxGeometry x="82" y="183" width="170" height="357" as="geometry" />
        </mxCell>
        <mxCell id="vZHb_LdkEPTU56aYvnZh-19" value="KeepAlive(Active)" style="rounded=1;whiteSpace=wrap;html=1;absoluteArcSize=1;arcSize=14;strokeWidth=1;dashed=1;dashPattern=1 1;fillColor=default;gradientColor=none;" parent="1" vertex="1">
          <mxGeometry x="92" y="199" width="150" height="24" as="geometry" />
        </mxCell>
        <mxCell id="vZHb_LdkEPTU56aYvnZh-21" value="Nginx" style="rounded=1;whiteSpace=wrap;html=1;absoluteArcSize=1;arcSize=14;strokeWidth=1;dashed=1;dashPattern=1 1;fillColor=default;gradientColor=none;" parent="1" vertex="1">
          <mxGeometry x="92" y="234" width="150" height="28" as="geometry" />
        </mxCell>
        <mxCell id="vZHb_LdkEPTU56aYvnZh-37" value="WEB UI" style="rounded=1;whiteSpace=wrap;html=1;absoluteArcSize=1;arcSize=14;strokeWidth=1;dashed=1;fillColor=#d5e8d4;dashPattern=1 1;strokeColor=#82b366;" parent="1" vertex="1">
          <mxGeometry x="470" y="69" width="91" height="40" as="geometry" />
        </mxCell>
        <mxCell id="vZHb_LdkEPTU56aYvnZh-38" value="" style="rounded=1;whiteSpace=wrap;html=1;absoluteArcSize=1;arcSize=14;strokeWidth=1;dashed=1;dashPattern=1 1;fillColor=#dae8fc;strokeColor=#6c8ebf;" parent="1" vertex="1">
          <mxGeometry x="626" y="183" width="170" height="357" as="geometry" />
        </mxCell>
        <mxCell id="vZHb_LdkEPTU56aYvnZh-39" value="KeepAlive(Standby)" style="rounded=1;whiteSpace=wrap;html=1;absoluteArcSize=1;arcSize=14;strokeWidth=1;dashed=1;dashPattern=1 1;fillColor=default;gradientColor=none;" parent="1" vertex="1">
          <mxGeometry x="636" y="199" width="150" height="24" as="geometry" />
        </mxCell>
        <mxCell id="vZHb_LdkEPTU56aYvnZh-40" value="Nginx" style="rounded=1;whiteSpace=wrap;html=1;absoluteArcSize=1;arcSize=14;strokeWidth=1;dashed=1;dashPattern=1 1;fillColor=default;gradientColor=none;" parent="1" vertex="1">
          <mxGeometry x="636" y="234" width="150" height="28" as="geometry" />
        </mxCell>
        <mxCell id="vZHb_LdkEPTU56aYvnZh-51" value="" style="endArrow=classic;startArrow=classic;html=1;rounded=0;exitX=0.605;exitY=-0.037;exitDx=0;exitDy=0;exitPerimeter=0;entryX=0.5;entryY=1;entryDx=0;entryDy=0;" parent="1" source="vZHb_LdkEPTU56aYvnZh-9" target="vZHb_LdkEPTU56aYvnZh-37" edge="1">
          <mxGeometry width="50" height="50" relative="1" as="geometry">
            <mxPoint x="505.16" y="130" as="sourcePoint" />
            <mxPoint x="510" y="100" as="targetPoint" />
          </mxGeometry>
        </mxCell>
        <mxCell id="vZHb_LdkEPTU56aYvnZh-52" value="" style="endArrow=classic;startArrow=classic;html=1;rounded=0;exitX=0.183;exitY=-0.037;exitDx=0;exitDy=0;exitPerimeter=0;entryX=0.5;entryY=1;entryDx=0;entryDy=0;" parent="1" source="vZHb_LdkEPTU56aYvnZh-9" target="vZHb_LdkEPTU56aYvnZh-6" edge="1">
          <mxGeometry width="50" height="50" relative="1" as="geometry">
            <mxPoint x="244.66" y="121" as="sourcePoint" />
            <mxPoint x="244.66" y="81" as="targetPoint" />
          </mxGeometry>
        </mxCell>
        <mxCell id="vZHb_LdkEPTU56aYvnZh-53" value="" style="endArrow=classic;startArrow=classic;html=1;rounded=0;exitX=0.398;exitY=-0.106;exitDx=0;exitDy=0;exitPerimeter=0;" parent="1" source="vZHb_LdkEPTU56aYvnZh-9" edge="1">
          <mxGeometry width="50" height="50" relative="1" as="geometry">
            <mxPoint x="367" y="120" as="sourcePoint" />
            <mxPoint x="367" y="110" as="targetPoint" />
          </mxGeometry>
        </mxCell>
        <mxCell id="vZHb_LdkEPTU56aYvnZh-55" value="" style="endArrow=classic;startArrow=classic;html=1;rounded=0;exitX=0.818;exitY=-0.014;exitDx=0;exitDy=0;exitPerimeter=0;" parent="1" source="vZHb_LdkEPTU56aYvnZh-9" edge="1">
          <mxGeometry width="50" height="50" relative="1" as="geometry">
            <mxPoint x="634.66" y="146" as="sourcePoint" />
            <mxPoint x="670" y="110" as="targetPoint" />
          </mxGeometry>
        </mxCell>
        <mxCell id="vZHb_LdkEPTU56aYvnZh-56" value="" style="rounded=1;whiteSpace=wrap;html=1;absoluteArcSize=1;arcSize=14;strokeWidth=1;dashed=1;dashPattern=1 1;fillColor=#dae8fc;strokeColor=#6c8ebf;fontSize=9;" parent="1" vertex="1">
          <mxGeometry x="288" y="408" width="142" height="60" as="geometry" />
        </mxCell>
        <mxCell id="vZHb_LdkEPTU56aYvnZh-57" value="KeepAlive(Active)" style="rounded=1;whiteSpace=wrap;html=1;absoluteArcSize=1;arcSize=14;strokeWidth=1;dashed=1;dashPattern=1 1;fillColor=default;gradientColor=none;fontSize=9;" parent="1" vertex="1">
          <mxGeometry x="298" y="440" width="122" height="24" as="geometry" />
        </mxCell>
        <mxCell id="vZHb_LdkEPTU56aYvnZh-58" value="Redis" style="rounded=1;whiteSpace=wrap;html=1;absoluteArcSize=1;arcSize=14;strokeWidth=1;dashed=1;dashPattern=1 1;fillColor=default;gradientColor=none;fontSize=9;" parent="1" vertex="1">
          <mxGeometry x="298" y="412" width="122" height="24" as="geometry" />
        </mxCell>
        <mxCell id="vZHb_LdkEPTU56aYvnZh-64" value="VIP（Virtual IP Address）" style="rounded=1;whiteSpace=wrap;html=1;absoluteArcSize=1;arcSize=14;strokeWidth=1;dashed=1;dashPattern=1 1;fillColor=#ffe6cc;strokeColor=#d79b00;fontSize=9;" parent="1" vertex="1">
          <mxGeometry x="289" y="471" width="292" height="30" as="geometry" />
        </mxCell>
        <mxCell id="vZHb_LdkEPTU56aYvnZh-65" value="" style="rounded=1;whiteSpace=wrap;html=1;absoluteArcSize=1;arcSize=14;strokeWidth=1;dashed=1;dashPattern=1 1;fillColor=#dae8fc;strokeColor=#6c8ebf;fontSize=9;" parent="1" vertex="1">
          <mxGeometry x="290" y="237" width="142" height="63" as="geometry" />
        </mxCell>
        <mxCell id="vZHb_LdkEPTU56aYvnZh-66" value="KeepAlive(Active)" style="rounded=1;whiteSpace=wrap;html=1;absoluteArcSize=1;arcSize=14;strokeWidth=1;dashed=1;dashPattern=1 1;fillColor=default;gradientColor=none;fontSize=9;" parent="1" vertex="1">
          <mxGeometry x="300" y="273" width="122" height="24" as="geometry" />
        </mxCell>
        <mxCell id="vZHb_LdkEPTU56aYvnZh-67" value="MySQL" style="rounded=1;whiteSpace=wrap;html=1;absoluteArcSize=1;arcSize=14;strokeWidth=1;dashed=1;dashPattern=1 1;fillColor=default;gradientColor=none;fontSize=9;" parent="1" vertex="1">
          <mxGeometry x="300" y="244" width="122" height="24" as="geometry" />
        </mxCell>
        <mxCell id="vZHb_LdkEPTU56aYvnZh-71" value="VIP（Virtual IP Address）" style="rounded=1;whiteSpace=wrap;html=1;absoluteArcSize=1;arcSize=14;strokeWidth=1;dashed=1;dashPattern=1 1;fillColor=#ffe6cc;strokeColor=#d79b00;fontSize=9;" parent="1" vertex="1">
          <mxGeometry x="290" y="307" width="292" height="30" as="geometry" />
        </mxCell>
        <mxCell id="vZHb_LdkEPTU56aYvnZh-73" value="" style="verticalLabelPosition=bottom;verticalAlign=top;html=1;shape=mxgraph.basic.rect;fillColor2=none;strokeWidth=1;size=20;indent=5;dashed=1;dashPattern=1 1;labelBackgroundColor=#ffffff;fontSize=11;fillColor=#e1d5e7;shadow=0;strokeColor=#9673a6;" parent="1" vertex="1">
          <mxGeometry x="87" y="272" width="160" height="258" as="geometry" />
        </mxCell>
        <mxCell id="vZHb_LdkEPTU56aYvnZh-27" value="Gateway" style="rounded=1;whiteSpace=wrap;html=1;absoluteArcSize=1;arcSize=14;strokeWidth=1;dashed=1;dashPattern=1 1;fillColor=default;gradientColor=none;" parent="1" vertex="1">
          <mxGeometry x="92" y="326" width="70" height="30" as="geometry" />
        </mxCell>
        <mxCell id="vZHb_LdkEPTU56aYvnZh-28" value="Eureka" style="rounded=1;whiteSpace=wrap;html=1;absoluteArcSize=1;arcSize=14;strokeWidth=1;dashed=1;dashPattern=1 1;fillColor=default;gradientColor=none;" parent="1" vertex="1">
          <mxGeometry x="172" y="326" width="70" height="30" as="geometry" />
        </mxCell>
        <mxCell id="vZHb_LdkEPTU56aYvnZh-31" value="CAS Service" style="rounded=1;whiteSpace=wrap;html=1;absoluteArcSize=1;arcSize=14;strokeWidth=1;dashed=1;dashPattern=1 1;fillColor=default;gradientColor=none;" parent="1" vertex="1">
          <mxGeometry x="92" y="286" width="150" height="30" as="geometry" />
        </mxCell>
        <mxCell id="vZHb_LdkEPTU56aYvnZh-33" value="CMS Console" style="rounded=1;whiteSpace=wrap;html=1;absoluteArcSize=1;arcSize=14;strokeWidth=1;dashed=1;dashPattern=1 1;fillColor=default;gradientColor=none;" parent="1" vertex="1">
          <mxGeometry x="92" y="366" width="150" height="30" as="geometry" />
        </mxCell>
        <mxCell id="vZHb_LdkEPTU56aYvnZh-34" value="Mdo-airflow" style="rounded=1;whiteSpace=wrap;html=1;absoluteArcSize=1;arcSize=14;strokeWidth=1;dashed=1;dashPattern=1 1;fillColor=default;gradientColor=none;" parent="1" vertex="1">
          <mxGeometry x="92" y="486" width="150" height="30" as="geometry" />
        </mxCell>
        <mxCell id="vZHb_LdkEPTU56aYvnZh-35" value="Mdo-WorkSpace" style="rounded=1;whiteSpace=wrap;html=1;absoluteArcSize=1;arcSize=14;strokeWidth=1;dashed=1;dashPattern=1 1;fillColor=default;gradientColor=none;" parent="1" vertex="1">
          <mxGeometry x="92" y="446" width="150" height="30" as="geometry" />
        </mxCell>
        <mxCell id="vZHb_LdkEPTU56aYvnZh-36" value="Mdo-Metadata" style="rounded=1;whiteSpace=wrap;html=1;absoluteArcSize=1;arcSize=14;strokeWidth=1;dashed=1;dashPattern=1 1;fillColor=default;gradientColor=none;" parent="1" vertex="1">
          <mxGeometry x="92" y="406" width="150" height="30" as="geometry" />
        </mxCell>
        <mxCell id="vZHb_LdkEPTU56aYvnZh-74" value="" style="verticalLabelPosition=bottom;verticalAlign=top;html=1;shape=mxgraph.basic.rect;fillColor2=none;strokeWidth=1;size=20;indent=5;dashed=1;dashPattern=1 1;labelBackgroundColor=#ffffff;fontSize=11;fillColor=#e1d5e7;shadow=0;strokeColor=#9673a6;" parent="1" vertex="1">
          <mxGeometry x="631" y="272" width="160" height="258" as="geometry" />
        </mxCell>
        <mxCell id="vZHb_LdkEPTU56aYvnZh-75" value="Gateway" style="rounded=1;whiteSpace=wrap;html=1;absoluteArcSize=1;arcSize=14;strokeWidth=1;dashed=1;dashPattern=1 1;fillColor=default;gradientColor=none;" parent="1" vertex="1">
          <mxGeometry x="636" y="326" width="70" height="30" as="geometry" />
        </mxCell>
        <mxCell id="vZHb_LdkEPTU56aYvnZh-76" value="Eureka" style="rounded=1;whiteSpace=wrap;html=1;absoluteArcSize=1;arcSize=14;strokeWidth=1;dashed=1;dashPattern=1 1;fillColor=default;gradientColor=none;" parent="1" vertex="1">
          <mxGeometry x="716" y="326" width="70" height="30" as="geometry" />
        </mxCell>
        <mxCell id="vZHb_LdkEPTU56aYvnZh-77" value="CAS Service" style="rounded=1;whiteSpace=wrap;html=1;absoluteArcSize=1;arcSize=14;strokeWidth=1;dashed=1;dashPattern=1 1;fillColor=default;gradientColor=none;" parent="1" vertex="1">
          <mxGeometry x="636" y="286" width="150" height="30" as="geometry" />
        </mxCell>
        <mxCell id="vZHb_LdkEPTU56aYvnZh-78" value="CMS Console" style="rounded=1;whiteSpace=wrap;html=1;absoluteArcSize=1;arcSize=14;strokeWidth=1;dashed=1;dashPattern=1 1;fillColor=default;gradientColor=none;" parent="1" vertex="1">
          <mxGeometry x="636" y="366" width="150" height="30" as="geometry" />
        </mxCell>
        <mxCell id="vZHb_LdkEPTU56aYvnZh-79" value="Mdo-airflow" style="rounded=1;whiteSpace=wrap;html=1;absoluteArcSize=1;arcSize=14;strokeWidth=1;dashed=1;dashPattern=1 1;fillColor=default;gradientColor=none;" parent="1" vertex="1">
          <mxGeometry x="636" y="486" width="150" height="30" as="geometry" />
        </mxCell>
        <mxCell id="vZHb_LdkEPTU56aYvnZh-80" value="Mdo-WorkSpace" style="rounded=1;whiteSpace=wrap;html=1;absoluteArcSize=1;arcSize=14;strokeWidth=1;dashed=1;dashPattern=1 1;fillColor=default;gradientColor=none;" parent="1" vertex="1">
          <mxGeometry x="636" y="446" width="150" height="30" as="geometry" />
        </mxCell>
        <mxCell id="vZHb_LdkEPTU56aYvnZh-81" value="Mdo-Metadata" style="rounded=1;whiteSpace=wrap;html=1;absoluteArcSize=1;arcSize=14;strokeWidth=1;dashed=1;dashPattern=1 1;fillColor=default;gradientColor=none;" parent="1" vertex="1">
          <mxGeometry x="636" y="406" width="150" height="30" as="geometry" />
        </mxCell>
        <mxCell id="vZHb_LdkEPTU56aYvnZh-83" value="" style="endArrow=classic;startArrow=classic;html=1;rounded=0;fontSize=11;entryX=0;entryY=0.5;entryDx=0;entryDy=0;exitX=1;exitY=0.432;exitDx=0;exitDy=0;exitPerimeter=0;edgeStyle=orthogonalEdgeStyle;" parent="1" source="vZHb_LdkEPTU56aYvnZh-73" target="vZHb_LdkEPTU56aYvnZh-71" edge="1">
          <mxGeometry width="50" height="50" relative="1" as="geometry">
            <mxPoint x="370" y="470" as="sourcePoint" />
            <mxPoint x="420" y="420" as="targetPoint" />
          </mxGeometry>
        </mxCell>
        <mxCell id="vZHb_LdkEPTU56aYvnZh-84" value="" style="endArrow=classic;startArrow=classic;html=1;rounded=0;fontSize=11;entryX=1;entryY=0.5;entryDx=0;entryDy=0;exitX=0.001;exitY=0.448;exitDx=0;exitDy=0;exitPerimeter=0;edgeStyle=orthogonalEdgeStyle;" parent="1" source="vZHb_LdkEPTU56aYvnZh-74" target="vZHb_LdkEPTU56aYvnZh-71" edge="1">
          <mxGeometry width="50" height="50" relative="1" as="geometry">
            <mxPoint x="257" y="393.456" as="sourcePoint" />
            <mxPoint x="300" y="295" as="targetPoint" />
          </mxGeometry>
        </mxCell>
        <mxCell id="vZHb_LdkEPTU56aYvnZh-86" value="" style="rounded=1;whiteSpace=wrap;html=1;absoluteArcSize=1;arcSize=14;strokeWidth=1;dashed=1;dashPattern=1 1;fillColor=#dae8fc;strokeColor=#6c8ebf;fontSize=9;" parent="1" vertex="1">
          <mxGeometry x="441" y="237" width="142" height="63" as="geometry" />
        </mxCell>
        <mxCell id="vZHb_LdkEPTU56aYvnZh-87" value="KeepAlive(Active)" style="rounded=1;whiteSpace=wrap;html=1;absoluteArcSize=1;arcSize=14;strokeWidth=1;dashed=1;dashPattern=1 1;fillColor=default;gradientColor=none;fontSize=9;" parent="1" vertex="1">
          <mxGeometry x="451" y="273" width="122" height="24" as="geometry" />
        </mxCell>
        <mxCell id="vZHb_LdkEPTU56aYvnZh-88" value="MySQL" style="rounded=1;whiteSpace=wrap;html=1;absoluteArcSize=1;arcSize=14;strokeWidth=1;dashed=1;dashPattern=1 1;fillColor=default;gradientColor=none;fontSize=9;" parent="1" vertex="1">
          <mxGeometry x="451" y="244" width="122" height="24" as="geometry" />
        </mxCell>
        <mxCell id="vZHb_LdkEPTU56aYvnZh-89" value="" style="endArrow=classic;startArrow=classic;html=1;rounded=0;fontSize=11;exitX=0.992;exitY=0.526;exitDx=0;exitDy=0;exitPerimeter=0;entryX=0;entryY=0.5;entryDx=0;entryDy=0;edgeStyle=orthogonalEdgeStyle;" parent="1" source="vZHb_LdkEPTU56aYvnZh-73" target="vZHb_LdkEPTU56aYvnZh-64" edge="1">
          <mxGeometry width="50" height="50" relative="1" as="geometry">
            <mxPoint x="360" y="530" as="sourcePoint" />
            <mxPoint x="410" y="480" as="targetPoint" />
          </mxGeometry>
        </mxCell>
        <mxCell id="vZHb_LdkEPTU56aYvnZh-90" value="" style="endArrow=classic;startArrow=classic;html=1;rounded=0;fontSize=11;exitX=0.006;exitY=0.535;exitDx=0;exitDy=0;exitPerimeter=0;entryX=1;entryY=0.5;entryDx=0;entryDy=0;edgeStyle=orthogonalEdgeStyle;" parent="1" source="vZHb_LdkEPTU56aYvnZh-74" target="vZHb_LdkEPTU56aYvnZh-64" edge="1">
          <mxGeometry width="50" height="50" relative="1" as="geometry">
            <mxPoint x="410" y="405.9979999999999" as="sourcePoint" />
            <mxPoint x="526.7799999999997" y="558.29" as="targetPoint" />
          </mxGeometry>
        </mxCell>
        <mxCell id="vZHb_LdkEPTU56aYvnZh-91" value="" style="rounded=1;whiteSpace=wrap;html=1;absoluteArcSize=1;arcSize=14;strokeWidth=1;dashed=1;dashPattern=1 1;fillColor=#dae8fc;strokeColor=#6c8ebf;fontSize=9;" parent="1" vertex="1">
          <mxGeometry x="439" y="408" width="142" height="60" as="geometry" />
        </mxCell>
        <mxCell id="vZHb_LdkEPTU56aYvnZh-92" value="KeepAlive(Active)" style="rounded=1;whiteSpace=wrap;html=1;absoluteArcSize=1;arcSize=14;strokeWidth=1;dashed=1;dashPattern=1 1;fillColor=default;gradientColor=none;fontSize=9;" parent="1" vertex="1">
          <mxGeometry x="449" y="440" width="122" height="24" as="geometry" />
        </mxCell>
        <mxCell id="vZHb_LdkEPTU56aYvnZh-93" value="Redis" style="rounded=1;whiteSpace=wrap;html=1;absoluteArcSize=1;arcSize=14;strokeWidth=1;dashed=1;dashPattern=1 1;fillColor=default;gradientColor=none;fontSize=9;" parent="1" vertex="1">
          <mxGeometry x="449" y="412" width="122" height="24" as="geometry" />
        </mxCell>
        <mxCell id="vZHb_LdkEPTU56aYvnZh-99" value="Airflow Cluster Server1" style="rounded=1;whiteSpace=wrap;html=1;absoluteArcSize=1;arcSize=14;strokeWidth=1;shadow=0;dashed=1;dashPattern=1 1;labelBackgroundColor=#ffffff;fontSize=11;fillColor=#f5f5f5;verticalAlign=top;strokeColor=#666666;fontColor=#333333;" parent="1" vertex="1">
          <mxGeometry x="180" y="620" width="220" height="150" as="geometry" />
        </mxCell>
        <mxCell id="vZHb_LdkEPTU56aYvnZh-101" value="&lt;span style=&quot;font-size: 11px;&quot;&gt;WebServer&lt;/span&gt;" style="rounded=1;whiteSpace=wrap;html=1;absoluteArcSize=1;arcSize=14;strokeWidth=1;shadow=0;dashed=1;dashPattern=1 1;labelBackgroundColor=#ffffff;fontSize=11;fillColor=default;gradientColor=none;" parent="1" vertex="1">
          <mxGeometry x="187.5" y="650" width="92" height="30" as="geometry" />
        </mxCell>
        <mxCell id="vZHb_LdkEPTU56aYvnZh-102" value="&lt;span style=&quot;font-size: 11px;&quot;&gt;Master&lt;/span&gt;" style="rounded=1;whiteSpace=wrap;html=1;absoluteArcSize=1;arcSize=14;strokeWidth=1;shadow=0;dashed=1;dashPattern=1 1;labelBackgroundColor=#ffffff;fontSize=11;fillColor=default;gradientColor=none;" parent="1" vertex="1">
          <mxGeometry x="298" y="650" width="92" height="30" as="geometry" />
        </mxCell>
        <mxCell id="vZHb_LdkEPTU56aYvnZh-103" value="&lt;span style=&quot;font-size: 11px;&quot;&gt;Scheduler&lt;/span&gt;" style="rounded=1;whiteSpace=wrap;html=1;absoluteArcSize=1;arcSize=14;strokeWidth=1;shadow=0;dashed=1;dashPattern=1 1;labelBackgroundColor=#ffffff;fontSize=11;fillColor=default;gradientColor=none;" parent="1" vertex="1">
          <mxGeometry x="187.5" y="690" width="92" height="30" as="geometry" />
        </mxCell>
        <mxCell id="vZHb_LdkEPTU56aYvnZh-104" value="Dsyncer" style="rounded=1;whiteSpace=wrap;html=1;absoluteArcSize=1;arcSize=14;strokeWidth=1;shadow=0;dashed=1;dashPattern=1 1;labelBackgroundColor=#ffffff;fontSize=11;fillColor=default;gradientColor=none;" parent="1" vertex="1">
          <mxGeometry x="298" y="690" width="92" height="30" as="geometry" />
        </mxCell>
        <mxCell id="vZHb_LdkEPTU56aYvnZh-105" value="&lt;span style=&quot;font-size: 11px;&quot;&gt;Worker&lt;/span&gt;" style="rounded=1;whiteSpace=wrap;html=1;absoluteArcSize=1;arcSize=14;strokeWidth=1;shadow=0;dashed=1;dashPattern=1 1;labelBackgroundColor=#ffffff;fontSize=11;fillColor=default;gradientColor=none;" parent="1" vertex="1">
          <mxGeometry x="187.5" y="730" width="92" height="30" as="geometry" />
        </mxCell>
        <mxCell id="vZHb_LdkEPTU56aYvnZh-106" value="&lt;span style=&quot;font-size: 11px;&quot;&gt;Server_Logs&lt;/span&gt;" style="rounded=1;whiteSpace=wrap;html=1;absoluteArcSize=1;arcSize=14;strokeWidth=1;shadow=0;dashed=1;dashPattern=1 1;labelBackgroundColor=#ffffff;fontSize=11;fillColor=default;gradientColor=none;" parent="1" vertex="1">
          <mxGeometry x="298" y="730" width="92" height="30" as="geometry" />
        </mxCell>
        <mxCell id="vZHb_LdkEPTU56aYvnZh-118" value="" style="edgeStyle=orthogonalEdgeStyle;rounded=0;orthogonalLoop=1;jettySize=auto;html=1;fontSize=11;" parent="1" source="vZHb_LdkEPTU56aYvnZh-107" target="vZHb_LdkEPTU56aYvnZh-64" edge="1">
          <mxGeometry relative="1" as="geometry">
            <Array as="points">
              <mxPoint x="556" y="570" />
              <mxPoint x="435" y="570" />
            </Array>
          </mxGeometry>
        </mxCell>
        <mxCell id="vZHb_LdkEPTU56aYvnZh-107" value="Airflow Cluster Server2" style="rounded=1;whiteSpace=wrap;html=1;absoluteArcSize=1;arcSize=14;strokeWidth=1;shadow=0;dashed=1;dashPattern=1 1;labelBackgroundColor=#ffffff;fontSize=11;fillColor=#f5f5f5;verticalAlign=top;strokeColor=#666666;fontColor=#333333;" parent="1" vertex="1">
          <mxGeometry x="446" y="620" width="220" height="150" as="geometry" />
        </mxCell>
        <mxCell id="vZHb_LdkEPTU56aYvnZh-108" value="&lt;span style=&quot;font-size: 11px;&quot;&gt;WebServer&lt;/span&gt;" style="rounded=1;whiteSpace=wrap;html=1;absoluteArcSize=1;arcSize=14;strokeWidth=1;shadow=0;dashed=1;dashPattern=1 1;labelBackgroundColor=#ffffff;fontSize=11;fillColor=default;gradientColor=none;" parent="1" vertex="1">
          <mxGeometry x="453.5" y="650" width="92" height="30" as="geometry" />
        </mxCell>
        <mxCell id="vZHb_LdkEPTU56aYvnZh-109" value="&lt;span style=&quot;font-size: 11px;&quot;&gt;Master&lt;/span&gt;" style="rounded=1;whiteSpace=wrap;html=1;absoluteArcSize=1;arcSize=14;strokeWidth=1;shadow=0;dashed=1;dashPattern=1 1;labelBackgroundColor=#ffffff;fontSize=11;fillColor=default;gradientColor=none;" parent="1" vertex="1">
          <mxGeometry x="564" y="650" width="92" height="30" as="geometry" />
        </mxCell>
        <mxCell id="vZHb_LdkEPTU56aYvnZh-110" value="&lt;span style=&quot;font-size: 11px;&quot;&gt;Scheduler&lt;/span&gt;" style="rounded=1;whiteSpace=wrap;html=1;absoluteArcSize=1;arcSize=14;strokeWidth=1;shadow=0;dashed=1;dashPattern=1 1;labelBackgroundColor=#ffffff;fontSize=11;fillColor=default;gradientColor=none;" parent="1" vertex="1">
          <mxGeometry x="453.5" y="690" width="92" height="30" as="geometry" />
        </mxCell>
        <mxCell id="vZHb_LdkEPTU56aYvnZh-111" value="Dsyncer" style="rounded=1;whiteSpace=wrap;html=1;absoluteArcSize=1;arcSize=14;strokeWidth=1;shadow=0;dashed=1;dashPattern=1 1;labelBackgroundColor=#ffffff;fontSize=11;fillColor=default;gradientColor=none;" parent="1" vertex="1">
          <mxGeometry x="564" y="690" width="92" height="30" as="geometry" />
        </mxCell>
        <mxCell id="vZHb_LdkEPTU56aYvnZh-112" value="&lt;span style=&quot;font-size: 11px;&quot;&gt;Worker&lt;/span&gt;" style="rounded=1;whiteSpace=wrap;html=1;absoluteArcSize=1;arcSize=14;strokeWidth=1;shadow=0;dashed=1;dashPattern=1 1;labelBackgroundColor=#ffffff;fontSize=11;fillColor=default;gradientColor=none;" parent="1" vertex="1">
          <mxGeometry x="453.5" y="730" width="92" height="30" as="geometry" />
        </mxCell>
        <mxCell id="vZHb_LdkEPTU56aYvnZh-113" value="&lt;span style=&quot;font-size: 11px;&quot;&gt;Server_Logs&lt;/span&gt;" style="rounded=1;whiteSpace=wrap;html=1;absoluteArcSize=1;arcSize=14;strokeWidth=1;shadow=0;dashed=1;dashPattern=1 1;labelBackgroundColor=#ffffff;fontSize=11;fillColor=default;gradientColor=none;" parent="1" vertex="1">
          <mxGeometry x="564" y="730" width="92" height="30" as="geometry" />
        </mxCell>
        <mxCell id="vZHb_LdkEPTU56aYvnZh-114" value="" style="endArrow=classic;startArrow=classic;html=1;rounded=0;fontSize=11;entryX=0.5;entryY=1;entryDx=0;entryDy=0;exitX=0.5;exitY=0;exitDx=0;exitDy=0;edgeStyle=orthogonalEdgeStyle;" parent="1" source="vZHb_LdkEPTU56aYvnZh-99" target="vZHb_LdkEPTU56aYvnZh-34" edge="1">
          <mxGeometry width="50" height="50" relative="1" as="geometry">
            <mxPoint x="390" y="590" as="sourcePoint" />
            <mxPoint x="440" y="540" as="targetPoint" />
          </mxGeometry>
        </mxCell>
        <mxCell id="vZHb_LdkEPTU56aYvnZh-115" value="" style="endArrow=classic;startArrow=classic;html=1;rounded=0;fontSize=11;entryX=0.5;entryY=1;entryDx=0;entryDy=0;exitX=0.5;exitY=0;exitDx=0;exitDy=0;edgeStyle=orthogonalEdgeStyle;" parent="1" source="vZHb_LdkEPTU56aYvnZh-107" target="vZHb_LdkEPTU56aYvnZh-79" edge="1">
          <mxGeometry width="50" height="50" relative="1" as="geometry">
            <mxPoint x="732.5" y="644" as="sourcePoint" />
            <mxPoint x="609.5" y="540" as="targetPoint" />
          </mxGeometry>
        </mxCell>
        <mxCell id="vZHb_LdkEPTU56aYvnZh-116" value="" style="endArrow=classic;startArrow=classic;html=1;rounded=0;fontSize=11;entryX=0.25;entryY=1;entryDx=0;entryDy=0;exitX=0.5;exitY=0;exitDx=0;exitDy=0;edgeStyle=orthogonalEdgeStyle;" parent="1" source="vZHb_LdkEPTU56aYvnZh-99" target="vZHb_LdkEPTU56aYvnZh-64" edge="1">
          <mxGeometry width="50" height="50" relative="1" as="geometry">
            <mxPoint x="390" y="590" as="sourcePoint" />
            <mxPoint x="440" y="540" as="targetPoint" />
            <Array as="points">
              <mxPoint x="290" y="570" />
              <mxPoint x="362" y="570" />
            </Array>
          </mxGeometry>
        </mxCell>
        <mxCell id="x_IECBm6aQpzs8IEv9Kb-11" value="Dataops Service层" style="rounded=0;whiteSpace=wrap;html=1;align=center;horizontal=0;verticalAlign=top;fillColor=#dae8fc;strokeColor=#6c8ebf;" vertex="1" parent="1">
          <mxGeometry x="40" y="-730" width="718" height="160" as="geometry" />
        </mxCell>
        <mxCell id="x_IECBm6aQpzs8IEv9Kb-12" value="CDH存储计算层" style="rounded=0;whiteSpace=wrap;html=1;align=center;horizontal=0;verticalAlign=top;fillColor=#ffe6cc;strokeColor=#d79b00;" vertex="1" parent="1">
          <mxGeometry x="40" y="-560" width="718" height="240" as="geometry" />
        </mxCell>
        <mxCell id="x_IECBm6aQpzs8IEv9Kb-15" value="MySQL&lt;br&gt;（元数据库）" style="strokeWidth=2;html=1;shape=mxgraph.flowchart.database;whiteSpace=wrap;" vertex="1" parent="1">
          <mxGeometry x="648" y="-389" width="104" height="59" as="geometry" />
        </mxCell>
        <mxCell id="x_IECBm6aQpzs8IEv9Kb-17" value="展示层" style="rounded=0;whiteSpace=wrap;html=1;align=center;horizontal=0;verticalAlign=top;fillColor=#d5e8d4;strokeColor=#82b366;" vertex="1" parent="1">
          <mxGeometry x="40" y="-830" width="718" height="90" as="geometry" />
        </mxCell>
        <mxCell id="x_IECBm6aQpzs8IEv9Kb-18" value="MySQL" style="strokeWidth=2;html=1;shape=mxgraph.flowchart.database;whiteSpace=wrap;" vertex="1" parent="1">
          <mxGeometry x="648" y="-642.5" width="104" height="60" as="geometry" />
        </mxCell>
        <mxCell id="x_IECBm6aQpzs8IEv9Kb-19" value="Redis（缓存）" style="strokeWidth=2;html=1;shape=mxgraph.flowchart.database;whiteSpace=wrap;" vertex="1" parent="1">
          <mxGeometry x="648" y="-432.5" width="104" height="40" as="geometry" />
        </mxCell>
        <mxCell id="x_IECBm6aQpzs8IEv9Kb-20" value="" style="rounded=1;whiteSpace=wrap;html=1;" vertex="1" parent="1">
          <mxGeometry x="127" y="-717.5" width="120" height="60" as="geometry" />
        </mxCell>
        <mxCell id="x_IECBm6aQpzs8IEv9Kb-21" value="" style="rounded=1;whiteSpace=wrap;html=1;" vertex="1" parent="1">
          <mxGeometry x="282" y="-717.5" width="120" height="60" as="geometry" />
        </mxCell>
        <mxCell id="x_IECBm6aQpzs8IEv9Kb-22" value="" style="rounded=1;whiteSpace=wrap;html=1;" vertex="1" parent="1">
          <mxGeometry x="435" y="-717.5" width="120" height="60" as="geometry" />
        </mxCell>
        <mxCell id="x_IECBm6aQpzs8IEv9Kb-24" value="" style="rounded=1;whiteSpace=wrap;html=1;" vertex="1" parent="1">
          <mxGeometry x="127" y="-642.5" width="120" height="60" as="geometry" />
        </mxCell>
        <mxCell id="x_IECBm6aQpzs8IEv9Kb-25" value="" style="rounded=1;whiteSpace=wrap;html=1;" vertex="1" parent="1">
          <mxGeometry x="282" y="-642.5" width="120" height="60" as="geometry" />
        </mxCell>
        <mxCell id="x_IECBm6aQpzs8IEv9Kb-26" value="" style="rounded=1;whiteSpace=wrap;html=1;" vertex="1" parent="1">
          <mxGeometry x="435" y="-642.5" width="120" height="60" as="geometry" />
        </mxCell>
        <mxCell id="x_IECBm6aQpzs8IEv9Kb-28" value="" style="rounded=1;whiteSpace=wrap;html=1;" vertex="1" parent="1">
          <mxGeometry x="118" y="-815" width="120" height="60" as="geometry" />
        </mxCell>
        <mxCell id="x_IECBm6aQpzs8IEv9Kb-29" value="" style="rounded=1;whiteSpace=wrap;html=1;" vertex="1" parent="1">
          <mxGeometry x="276" y="-815" width="120" height="60" as="geometry" />
        </mxCell>
        <mxCell id="x_IECBm6aQpzs8IEv9Kb-30" value="" style="rounded=1;whiteSpace=wrap;html=1;" vertex="1" parent="1">
          <mxGeometry x="431" y="-815" width="120" height="60" as="geometry" />
        </mxCell>
        <mxCell id="x_IECBm6aQpzs8IEv9Kb-31" value="" style="rounded=1;whiteSpace=wrap;html=1;" vertex="1" parent="1">
          <mxGeometry x="589" y="-815" width="120" height="60" as="geometry" />
        </mxCell>
        <mxCell id="x_IECBm6aQpzs8IEv9Kb-32" value="HDFS（分布式文件系统）" style="rounded=1;whiteSpace=wrap;html=1;" vertex="1" parent="1">
          <mxGeometry x="144" y="-360" width="490" height="30" as="geometry" />
        </mxCell>
        <mxCell id="x_IECBm6aQpzs8IEv9Kb-35" value="Airlfow（作业流调度系统）" style="rounded=1;whiteSpace=wrap;html=1;" vertex="1" parent="1">
          <mxGeometry x="91" y="-550" width="540" height="40" as="geometry" />
        </mxCell>
        <mxCell id="x_IECBm6aQpzs8IEv9Kb-37" value="YARN（集群资源管理）" style="rounded=1;whiteSpace=wrap;html=1;" vertex="1" parent="1">
          <mxGeometry x="144" y="-400" width="420" height="33" as="geometry" />
        </mxCell>
        <mxCell id="x_IECBm6aQpzs8IEv9Kb-38" value="MapReduce（分布式离线计算框架）" style="rounded=1;whiteSpace=wrap;html=1;" vertex="1" parent="1">
          <mxGeometry x="354" y="-450" width="210" height="40" as="geometry" />
        </mxCell>
        <mxCell id="x_IECBm6aQpzs8IEv9Kb-39" value="Hive（离线数仓）" style="rounded=1;whiteSpace=wrap;html=1;" vertex="1" parent="1">
          <mxGeometry x="144" y="-500" width="286" height="40" as="geometry" />
        </mxCell>
        <mxCell id="x_IECBm6aQpzs8IEv9Kb-40" value="Spark（内存计算）" style="rounded=1;whiteSpace=wrap;html=1;" vertex="1" parent="1">
          <mxGeometry x="144" y="-450" width="199" height="40" as="geometry" />
        </mxCell>
        <mxCell id="x_IECBm6aQpzs8IEv9Kb-41" value="Impala（交互式分析）" style="rounded=1;whiteSpace=wrap;html=1;horizontal=0;" vertex="1" parent="1">
          <mxGeometry x="570" y="-500" width="64" height="130" as="geometry" />
        </mxCell>
        <mxCell id="x_IECBm6aQpzs8IEv9Kb-42" value="Zookeeper&lt;br&gt;（分布式协调服务）" style="rounded=1;whiteSpace=wrap;html=1;horizontal=0;" vertex="1" parent="1">
          <mxGeometry x="90" y="-500" width="46" height="169" as="geometry" />
        </mxCell>
        <mxCell id="x_IECBm6aQpzs8IEv9Kb-43" value="Sqoop&lt;br&gt;（数据库ETL工具）" style="rounded=1;whiteSpace=wrap;html=1;" vertex="1" parent="1">
          <mxGeometry x="437" y="-500" width="125" height="40" as="geometry" />
        </mxCell>
        <mxCell id="x_IECBm6aQpzs8IEv9Kb-44" value="Navigator Server&lt;br&gt;（元数据治理工具）" style="rounded=1;whiteSpace=wrap;html=1;horizontal=1;" vertex="1" parent="1">
          <mxGeometry x="648" y="-550" width="102" height="110" as="geometry" />
        </mxCell>
        <mxCell id="x_IECBm6aQpzs8IEv9Kb-45" value="Redis（缓存）" style="strokeWidth=2;html=1;shape=mxgraph.flowchart.database;whiteSpace=wrap;" vertex="1" parent="1">
          <mxGeometry x="647" y="-707.5" width="104" height="57.5" as="geometry" />
        </mxCell>
      </root>
    </mxGraphModel>
  </diagram>
</mxfile>
